<?xml version="1.0" encoding="utf-8"?>
<!-- Generator: Adobe Illustrator 16.0.0, SVG Export Plug-In . SVG Version: 6.00 Build 0)  -->
<!DOCTYPE svg PUBLIC "-//W3C//DTD SVG 1.1//EN" "http://www.w3.org/Graphics/SVG/1.1/DTD/svg11.dtd">
<svg version="1.1" id="Layer_1" xmlns="http://www.w3.org/2000/svg" xmlns:xlink="http://www.w3.org/1999/xlink" x="0px" y="0px"
	 width="302.094px" height="44.983px" viewBox="0 0 302.094 44.983" enable-background="new 0 0 302.094 44.983"
	 xml:space="preserve">
<g>
	<g>
		<path fill="#1E4B6B" d="M123.357,7.788c-0.382,0.656-0.915,0.983-1.598,0.983c-0.438,0-0.922-0.15-1.455-0.451
			s-1.168-0.636-1.906-1.004c-0.738-0.369-1.619-0.703-2.644-1.004c-1.025-0.3-2.233-0.451-3.626-0.451
			c-1.175,0-2.241,0.151-3.197,0.451c-0.958,0.301-1.77,0.71-2.438,1.229c-0.67,0.52-1.189,1.127-1.558,1.823
			c-0.368,0.697-0.553,1.456-0.553,2.275c0,1.039,0.308,1.906,0.922,2.603c0.616,0.697,1.421,1.298,2.418,1.804
			c0.998,0.505,2.138,0.957,3.422,1.353c1.284,0.396,2.596,0.813,3.935,1.25c1.339,0.437,2.649,0.937,3.934,1.496
			c1.284,0.56,2.425,1.25,3.423,2.068c0.997,0.821,1.802,1.826,2.418,3.014c0.614,1.188,0.921,2.616,0.921,4.283
			c0,1.94-0.348,3.73-1.045,5.37c-0.696,1.639-1.721,3.059-3.073,4.261s-3.012,2.146-4.98,2.829
			c-1.967,0.682-4.235,1.024-6.804,1.024c-2.896,0-5.54-0.479-7.93-1.435c-2.392-0.956-4.406-2.173-6.045-3.648l1.803-2.95
			c0.219-0.383,0.492-0.677,0.819-0.882c0.329-0.204,0.738-0.307,1.23-0.307c0.519,0,1.051,0.191,1.598,0.574
			c0.546,0.382,1.209,0.798,1.988,1.249s1.722,0.868,2.829,1.249c1.106,0.384,2.479,0.575,4.119,0.575
			c1.393,0,2.602-0.177,3.626-0.533c1.025-0.355,1.879-0.825,2.563-1.413c0.682-0.588,1.188-1.277,1.516-2.07
			c0.329-0.793,0.492-1.625,0.492-2.501c0-1.119-0.307-2.049-0.922-2.787c-0.616-0.736-1.421-1.365-2.418-1.884
			c-0.998-0.521-2.139-0.97-3.423-1.354c-1.285-0.383-2.602-0.792-3.954-1.229c-1.353-0.436-2.672-0.936-3.956-1.496
			c-1.285-0.559-2.426-1.277-3.423-2.152c-0.997-0.874-1.803-1.932-2.418-3.176c-0.614-1.243-0.921-2.766-0.921-4.569
			c0-1.612,0.328-3.156,0.984-4.632c0.655-1.475,1.619-2.772,2.889-3.893c1.271-1.121,2.835-2.008,4.694-2.665
			c1.857-0.656,3.975-0.983,6.352-0.983c2.732,0,5.211,0.43,7.439,1.291c2.226,0.861,4.119,2.056,5.677,3.586L123.357,7.788z"/>
		<path fill="#1E4B6B" d="M152.17,0.082c3.06,0,5.82,0.499,8.279,1.496s4.55,2.425,6.271,4.283c1.722,1.858,3.047,4.106,3.977,6.742
			c0.928,2.637,1.394,5.595,1.394,8.874c0,3.278-0.466,6.244-1.394,8.894c-0.93,2.65-2.255,4.904-3.977,6.763
			c-1.721,1.859-3.812,3.287-6.271,4.283c-2.459,0.997-5.22,1.496-8.279,1.496c-3.061,0-5.827-0.499-8.299-1.496
			c-2.474-0.996-4.578-2.424-6.313-4.283c-1.735-1.858-3.067-4.112-3.997-6.763c-0.929-2.649-1.393-5.615-1.393-8.894
			c0-3.279,0.464-6.236,1.393-8.874c0.93-2.636,2.262-4.884,3.997-6.742c1.735-1.857,3.838-3.285,6.313-4.283
			C146.343,0.581,149.109,0.082,152.17,0.082z M152.17,36.845c3.988,0,6.968-1.337,8.935-4.016
			c1.967-2.677,2.951-6.447,2.951-11.312c0-4.837-0.984-8.607-2.951-11.312s-4.946-4.058-8.935-4.058
			c-4.043,0-7.056,1.353-9.037,4.058c-1.982,2.705-2.972,6.475-2.972,11.312c0,4.864,0.989,8.635,2.972,11.312
			C145.114,35.508,148.126,36.845,152.17,36.845z"/>
		<path fill="#1E4B6B" d="M181.063,42.338v-41.6h4.467c0.848,0,1.428,0.15,1.743,0.451c0.313,0.301,0.525,0.847,0.635,1.64
			l0.492,6.066c1.312-2.76,2.923-4.932,4.836-6.517C195.148,0.793,197.443,0,200.121,0c0.903,0,1.756,0.096,2.563,0.287
			c0.806,0.192,1.51,0.492,2.111,0.902l-0.533,5.82c-0.164,0.737-0.602,1.106-1.312,1.106c-0.384,0-0.95-0.083-1.702-0.246
			c-0.75-0.164-1.576-0.246-2.479-0.246c-1.283,0-2.424,0.192-3.421,0.574c-0.998,0.383-1.894,0.943-2.685,1.68
			c-0.793,0.738-1.497,1.639-2.111,2.705c-0.614,1.065-1.182,2.282-1.7,3.647v26.108H181.063z"/>
		<path fill="#1E4B6B" d="M226.517,0.082c2.514,0,4.837,0.417,6.968,1.25c2.132,0.833,3.977,2.043,5.534,3.627
			c1.557,1.584,2.772,3.532,3.646,5.84c0.875,2.309,1.313,4.953,1.313,7.931c0,1.202-0.13,2.008-0.391,2.417
			c-0.26,0.41-0.744,0.616-1.454,0.616h-27.46c0.082,2.54,0.443,4.753,1.086,6.64c0.642,1.885,1.516,3.45,2.622,4.692
			c1.106,1.243,2.439,2.173,3.997,2.787c1.558,0.615,3.292,0.922,5.204,0.922c1.805,0,3.354-0.204,4.652-0.615
			c1.298-0.409,2.418-0.86,3.361-1.351c0.942-0.492,1.741-0.943,2.397-1.354c0.655-0.409,1.229-0.614,1.722-0.614
			c0.656,0,1.133,0.246,1.434,0.737l2.215,2.828c-0.958,1.148-2.064,2.125-3.321,2.931s-2.609,1.477-4.058,2.01
			c-1.448,0.532-2.944,0.921-4.487,1.167c-1.544,0.245-3.068,0.369-4.569,0.369c-2.87,0-5.528-0.486-7.973-1.455
			c-2.445-0.97-4.557-2.392-6.332-4.263c-1.777-1.871-3.163-4.194-4.159-6.968c-0.998-2.772-1.497-5.964-1.497-9.569
			c0-2.896,0.451-5.595,1.353-8.095c0.901-2.5,2.192-4.672,3.873-6.517c1.682-1.845,3.729-3.3,6.148-4.365
			C220.759,0.615,223.484,0.082,226.517,0.082z M226.641,5.779c-3.417,0-6.102,0.99-8.055,2.971
			c-1.954,1.981-3.176,4.721-3.668,8.218h22.092c0-1.64-0.232-3.142-0.696-4.509c-0.466-1.366-1.143-2.542-2.029-3.525
			c-0.889-0.983-1.975-1.755-3.259-2.315C229.74,6.06,228.279,5.779,226.641,5.779z"/>
	</g>
	<g>
		<g>
			<path fill="#1E4B6B" d="M0,42.339v-41.6h4.672c1.093,0,1.776,0.519,2.05,1.557L7.295,6.6c1.804-1.939,3.812-3.511,6.024-4.713
				c2.213-1.202,4.768-1.803,7.664-1.803c2.268,0,4.269,0.383,6.005,1.147c1.735,0.766,3.189,1.838,4.365,3.218
				c1.174,1.38,2.063,3.033,2.665,4.959c0.6,1.926,0.901,4.064,0.901,6.414v26.517h-7.788V15.822c0-3.005-0.696-5.349-2.09-7.029
				c-1.394-1.68-3.511-2.521-6.352-2.521c-2.105,0-4.058,0.492-5.861,1.476c-1.803,0.984-3.484,2.337-5.041,4.058v30.534H0z"/>
		</g>
	</g>
	<g>
		<g>
			<path fill="#F7AD1A" d="M265.695,31.493c-0.07,0.096-0.143,0.17-0.217,0.223s-0.176,0.078-0.307,0.078
				c-0.141,0-0.288-0.055-0.445-0.163c-0.158-0.109-0.35-0.227-0.576-0.354c-0.229-0.127-0.508-0.245-0.839-0.354
				c-0.331-0.108-0.738-0.163-1.219-0.163c-0.638,0-1.2,0.114-1.688,0.341c-0.49,0.228-0.897,0.554-1.226,0.982
				c-0.327,0.428-0.573,0.943-0.739,1.545c-0.166,0.603-0.249,1.284-0.249,2.043c0,0.787,0.09,1.485,0.269,2.096
				c0.178,0.61,0.432,1.127,0.76,1.547c0.327,0.418,0.725,0.736,1.191,0.956c0.467,0.218,0.989,0.326,1.565,0.326
				c0.559,0,1.018-0.066,1.376-0.203c0.357-0.135,0.653-0.281,0.89-0.438c0.235-0.156,0.435-0.304,0.597-0.438
				c0.161-0.137,0.324-0.202,0.49-0.202c0.211,0,0.367,0.077,0.472,0.234l0.708,0.904c-0.307,0.366-0.646,0.682-1.021,0.942
				c-0.376,0.262-0.777,0.476-1.206,0.642c-0.427,0.167-0.873,0.288-1.336,0.367s-0.935,0.118-1.414,0.118
				c-0.829,0-1.602-0.153-2.318-0.459c-0.717-0.305-1.339-0.751-1.866-1.336c-0.529-0.585-0.943-1.303-1.244-2.154
				c-0.302-0.852-0.453-1.819-0.453-2.901c0-0.986,0.139-1.896,0.413-2.73c0.275-0.834,0.679-1.557,1.212-2.168
				c0.532-0.611,1.19-1.087,1.972-1.428c0.781-0.34,1.678-0.511,2.691-0.511c0.952,0,1.788,0.153,2.509,0.459
				c0.72,0.307,1.354,0.733,1.905,1.283L265.695,31.493z"/>
			<path fill="#F7AD1A" d="M277.417,42.338c-0.245,0-0.433-0.039-0.563-0.118c-0.13-0.078-0.236-0.23-0.313-0.458l-0.275-1.191
				c-0.341,0.313-0.677,0.597-1.009,0.844c-0.332,0.25-0.68,0.456-1.041,0.622c-0.362,0.167-0.748,0.293-1.159,0.38
				c-0.41,0.088-0.869,0.132-1.375,0.132c-0.524,0-1.014-0.072-1.468-0.216c-0.453-0.145-0.849-0.365-1.186-0.662
				c-0.336-0.297-0.602-0.665-0.799-1.106c-0.196-0.441-0.295-0.962-0.295-1.565c0-0.523,0.143-1.026,0.426-1.506
				c0.284-0.481,0.747-0.91,1.389-1.29c0.643-0.38,1.479-0.693,2.515-0.938s2.308-0.383,3.818-0.418v-0.996
				c0-1.003-0.216-1.762-0.647-2.272c-0.434-0.511-1.068-0.766-1.906-0.766c-0.568,0-1.041,0.071-1.421,0.216
				s-0.708,0.301-0.983,0.471c-0.275,0.171-0.518,0.326-0.727,0.466s-0.419,0.21-0.628,0.21c-0.175,0-0.321-0.047-0.438-0.139
				c-0.119-0.091-0.223-0.198-0.309-0.32l-0.445-0.813c0.742-0.697,1.543-1.223,2.403-1.571c0.86-0.35,1.81-0.523,2.849-0.523
				c0.751,0,1.419,0.123,2.004,0.366c0.585,0.245,1.076,0.588,1.474,1.028c0.396,0.441,0.699,0.972,0.904,1.591
				c0.205,0.62,0.307,1.306,0.307,2.057v8.487H277.417z M272.428,40.806c0.393,0,0.757-0.039,1.092-0.118
				c0.337-0.079,0.651-0.191,0.943-0.339c0.294-0.149,0.57-0.331,0.833-0.545c0.261-0.214,0.523-0.456,0.785-0.728v-2.672
				c-1.048,0.035-1.939,0.118-2.672,0.25c-0.733,0.13-1.33,0.301-1.787,0.51c-0.459,0.21-0.793,0.461-1.002,0.754
				c-0.211,0.292-0.315,0.612-0.315,0.962c0,0.342,0.055,0.633,0.163,0.878c0.11,0.243,0.261,0.442,0.453,0.596
				c0.192,0.152,0.417,0.268,0.674,0.341C271.853,40.769,272.131,40.806,272.428,40.806z"/>
			<path fill="#F7AD1A" d="M281.988,42.338V29.044h1.428c0.271,0,0.456,0.048,0.557,0.144c0.1,0.096,0.167,0.271,0.203,0.524
				l0.156,1.938c0.42-0.882,0.935-1.577,1.545-2.083c0.612-0.506,1.346-0.759,2.202-0.759c0.288,0,0.561,0.031,0.818,0.091
				c0.258,0.062,0.481,0.157,0.674,0.288l-0.17,1.86c-0.053,0.235-0.191,0.354-0.419,0.354c-0.122,0-0.305-0.026-0.544-0.078
				c-0.239-0.053-0.504-0.079-0.792-0.079c-0.41,0-0.774,0.061-1.094,0.184c-0.319,0.122-0.605,0.301-0.857,0.537
				c-0.254,0.235-0.479,0.523-0.676,0.864c-0.196,0.34-0.377,0.729-0.543,1.166v8.343H281.988z"/>
			<path fill="#F7AD1A" d="M296.514,28.834c0.804,0,1.546,0.133,2.228,0.399c0.681,0.267,1.27,0.654,1.768,1.159
				c0.498,0.507,0.887,1.129,1.166,1.866c0.278,0.739,0.419,1.583,0.419,2.535c0,0.384-0.042,0.642-0.125,0.772
				c-0.083,0.132-0.237,0.196-0.464,0.196h-8.775c0.025,0.813,0.142,1.52,0.347,2.123c0.205,0.602,0.484,1.101,0.837,1.499
				c0.354,0.397,0.78,0.693,1.277,0.89c0.499,0.197,1.054,0.296,1.664,0.296c0.576,0,1.072-0.066,1.486-0.196
				c0.416-0.132,0.773-0.275,1.074-0.434c0.301-0.156,0.557-0.301,0.767-0.431c0.209-0.132,0.393-0.196,0.55-0.196
				c0.21,0,0.363,0.077,0.458,0.234l0.708,0.904c-0.306,0.366-0.659,0.679-1.061,0.937c-0.403,0.257-0.835,0.472-1.298,0.643
				c-0.463,0.169-0.94,0.293-1.434,0.372c-0.494,0.079-0.98,0.118-1.46,0.118c-0.917,0-1.767-0.155-2.549-0.465
				c-0.781-0.311-1.455-0.764-2.022-1.362s-1.011-1.341-1.33-2.227c-0.318-0.886-0.478-1.905-0.478-3.059
				c0-0.925,0.144-1.788,0.432-2.587c0.288-0.798,0.701-1.493,1.238-2.082c0.536-0.59,1.191-1.055,1.964-1.396
				C294.673,29.005,295.545,28.834,296.514,28.834z M296.554,30.655c-1.093,0-1.95,0.315-2.574,0.949s-1.015,1.508-1.173,2.626
				h7.061c0-0.523-0.074-1.003-0.223-1.44s-0.364-0.813-0.648-1.127s-0.631-0.561-1.042-0.74
				C297.544,30.744,297.077,30.655,296.554,30.655z"/>
		</g>
	</g>
	<g>
		<g>
			<path fill="#FFFFFF" d="M61.951,35.855c-4.233,0-8.048-2.384-9.948-6.216c-0.791-1.593-1.191-3.244-1.196-4.915
				c-0.009-6.142,4.989-11.148,11.134-11.159c3.131,0,6.039,1.288,8.189,3.626c0.516,0.563,0.979,1.189,1.405,1.921
				c0.438,0.744,0.791,1.561,1.05,2.43c0.348,1.165,0.515,2.173,0.515,3.161c0,0.027-0.008,0.057-0.014,0.087
				c0,0.017-0.004,0.033-0.004,0.054c-0.063,5.57-4.306,10.249-9.86,10.888c-0.121,0.017-0.239,0.033-0.358,0.048
				c-0.287,0.039-0.593,0.075-0.897,0.075H61.951z M61.948,13.75c-6.052,0.013-10.964,4.934-10.959,10.975
				c0.001,1.642,0.394,3.269,1.173,4.829c1.873,3.778,5.625,6.126,9.789,6.126v0.09l0.015-0.09c0.294,0,0.59-0.047,0.872-0.081
				c0.121-0.019,0.24-0.033,0.362-0.046c5.466-0.631,9.64-5.229,9.7-10.714c0-0.027,0.006-0.048,0.009-0.078
				c0.001-0.02,0.006-0.04,0.006-0.057c0-0.974-0.164-1.958-0.504-3.107c-0.255-0.852-0.603-1.665-1.034-2.395
				c-0.42-0.716-0.872-1.336-1.382-1.89C67.88,15.016,65.023,13.75,61.948,13.75z"/>
			
				<rect x="43.326" y="24.276" transform="matrix(0.7848 0.6197 -0.6197 0.7848 24.4422 -21.6595)" fill="#FFFFFF" width="0.169" height="0.18"/>
			<g>
				<path fill="#FBC410" d="M72.988,24.839c-0.061,5.619-4.316,10.173-9.781,10.807c-4.612,2.453-9.955,3.359-12.545,3.678
					c3.834,3.381,8.853,5.436,14.364,5.432c0.475,0,0.947-0.043,1.417-0.075C69.046,41.302,74.942,32.576,72.988,24.839z"/>
				<path fill="#FFFFFF" d="M64.999,44.846c-5.292,0-10.399-1.938-14.394-5.456l-0.151-0.134l0.197-0.023
					c2.718-0.329,7.962-1.248,12.517-3.667l0.032-0.013c5.466-0.631,9.64-5.229,9.7-10.714l0.009-0.699l0.171,0.685
					c1.957,7.758-3.94,16.513-6.565,19.906l-0.027,0.041l-0.349,0.023c-0.362,0.025-0.735,0.051-1.113,0.051H64.999z M50.875,39.39
					c3.938,3.399,8.945,5.28,14.125,5.28h0.027c0.368,0,0.741-0.035,1.1-0.059l0.269-0.019c2.547-3.305,8.102-11.569,6.658-19.057
					c-0.391,5.255-4.499,9.58-9.818,10.196C58.771,38.104,53.657,39.032,50.875,39.39z"/>
			</g>
			<g>
				<path fill="#FAC666" d="M74.181,24.715c-0.398-1.12-0.961-2.168-1.683-3.144c0.298,0.999,0.506,2.037,0.506,3.133
					c0,0.049-0.011,0.089-0.017,0.135c1.955,7.737-3.941,16.463-6.544,19.841c2.101-0.135,4.111-0.575,6.007-1.265
					C73.841,39.858,76.57,31.395,74.181,24.715z"/>
				<path fill="#FFFFFF" d="M66.244,44.788l0.128-0.163c2.61-3.382,8.468-12.076,6.532-19.76l-0.005-0.016l0.001-0.011
					c0-0.027,0.006-0.048,0.009-0.078c0.001-0.02,0.006-0.04,0.006-0.057c0-0.974-0.164-1.958-0.504-3.107l-0.153-0.5l0.31,0.412
					c0.731,1,1.307,2.063,1.7,3.173c2.411,6.749-0.405,15.371-1.731,18.766l-0.017,0.039l-0.038,0.015
					c-1.937,0.71-3.967,1.134-6.034,1.271L66.244,44.788z M73.082,24.834c1.912,7.642-3.767,16.233-6.446,19.744
					c1.964-0.148,3.899-0.563,5.743-1.234c1.326-3.403,4.103-11.94,1.72-18.598c-0.334-0.935-0.793-1.837-1.37-2.69
					c0.253,0.953,0.372,1.805,0.372,2.648c0,0.027-0.008,0.057-0.014,0.087C73.086,24.808,73.082,24.817,73.082,24.834z"/>
			</g>
			<g>
				<path fill="#F9C993" d="M71.457,19.152c0.443,0.759,0.787,1.564,1.042,2.419c0.721,0.976,1.285,2.023,1.683,3.144
					c2.389,6.68-0.34,15.144-1.731,18.7c2.542-0.931,4.86-2.313,6.855-4.069c-0.012-2.544-0.278-7.202-1.764-11.61
					C76.396,24.35,74.505,21.136,71.457,19.152z"/>
				<path fill="#FFFFFF" d="M72.292,43.572l0.074-0.19c1.317-3.377,4.123-11.951,1.732-18.636c-0.393-1.09-0.954-2.143-1.675-3.124
					l-0.013-0.025c-0.255-0.852-0.603-1.665-1.034-2.395l-0.194-0.336l0.321,0.214c2.73,1.777,4.788,4.679,6.122,8.628
					c1.513,4.468,1.759,9.212,1.776,11.638v0.044l-0.033,0.028c-2.028,1.776-4.348,3.156-6.886,4.083L72.292,43.572z M72.578,21.52
					c0.728,0.995,1.296,2.061,1.69,3.162c2.367,6.625-0.31,15.06-1.658,18.575c2.434-0.912,4.657-2.24,6.607-3.949
					c-0.017-2.431-0.269-7.128-1.76-11.539c-1.266-3.761-3.197-6.555-5.734-8.329C72.071,20.09,72.358,20.792,72.578,21.52z"/>
			</g>
			<g>
				<path fill="#F4A687" d="M70.063,17.252c0.531,0.58,0.992,1.217,1.395,1.9c3.048,1.983,4.939,5.197,6.084,8.583
					c1.486,4.408,1.752,9.066,1.764,11.61c4.543-3.985,7.418-9.815,7.412-16.332c0-0.127-0.018-0.239-0.018-0.364
					c-2.31-1.078-7.872-3.517-13.806-4.863C71.957,17.578,71.007,17.398,70.063,17.252z"/>
				<path fill="#FFFFFF" d="M79.218,39.546l-0.001-0.2c-0.013-2.413-0.26-7.142-1.76-11.577c-1.319-3.913-3.353-6.785-6.051-8.538
					l-0.028-0.028c-0.42-0.716-0.872-1.336-1.382-1.89l-0.171-0.189l0.254,0.044c0.985,0.151,1.94,0.334,2.837,0.534
					c6.011,1.361,11.668,3.857,13.824,4.875l0.052,0.021v0.054c0,0.059,0.004,0.112,0.008,0.175
					c0.002,0.057,0.007,0.123,0.007,0.189c0.009,6.267-2.702,12.243-7.438,16.404L79.218,39.546z M71.523,19.09
					c2.719,1.774,4.774,4.67,6.102,8.618c1.474,4.349,1.744,8.959,1.771,11.438c4.604-4.115,7.238-9.984,7.229-16.132
					c0-0.061-0.002-0.12-0.006-0.173c-0.005-0.046-0.006-0.087-0.008-0.133c-2.189-1.019-7.79-3.489-13.735-4.828
					c-0.82-0.185-1.682-0.354-2.575-0.499C70.744,17.89,71.147,18.455,71.523,19.09z"/>
			</g>
			<g>
				<path fill="#EF7374" d="M43.347,24.314c0.042,0.038,0.08,0.066,0.125,0.104c0.038,0.026,0.071,0.051,0.109,0.079
					c0.188,0.145,0.399,0.31,0.624,0.469c0.071,0.065,0.157,0.121,0.237,0.18c0.166,0.124,0.35,0.258,0.531,0.39
					c0.103,0.07,0.214,0.145,0.318,0.22c0.19,0.137,0.39,0.271,0.593,0.41c0.11,0.078,0.217,0.146,0.329,0.221
					c0.279,0.185,0.575,0.372,0.877,0.563c0.042,0.028,0.084,0.061,0.13,0.079c0.34,0.22,0.695,0.43,1.062,0.646
					c0.119,0.069,0.253,0.141,0.378,0.213c0.254,0.144,0.517,0.29,0.783,0.437c0.149,0.078,0.298,0.156,0.449,0.236
					c0.269,0.143,0.541,0.276,0.817,0.414c0.146,0.069,0.295,0.143,0.445,0.206c0.303,0.148,0.614,0.283,0.928,0.42
					c-0.73-1.478-1.181-3.114-1.182-4.876c-0.009-6.101,4.934-11.053,11.041-11.064c3.225-0.007,6.097,1.398,8.122,3.592
					c0.944,0.146,1.894,0.326,2.831,0.535c5.934,1.346,11.496,3.785,13.806,4.863C86.49,10.821,76.849,1.301,64.972,1.317
					c-11.994,0.013-21.708,9.75-21.696,21.746C43.282,23.483,43.323,23.897,43.347,24.314z"/>
				<path fill="#FFFFFF" d="M52.273,29.776l-0.226-0.091c-0.362-0.155-0.654-0.29-0.932-0.418c-0.104-0.046-0.206-0.097-0.308-0.144
					l-0.14-0.07c-0.275-0.137-0.548-0.269-0.816-0.417c-0.156-0.076-0.302-0.156-0.452-0.234c-0.269-0.143-0.531-0.291-0.784-0.435
					l-0.022-0.011c-0.118-0.069-0.241-0.136-0.36-0.206c-0.435-0.253-0.761-0.45-1.063-0.64c-0.025-0.015-0.05-0.031-0.076-0.046
					l-0.052-0.036c-0.302-0.191-0.595-0.38-0.878-0.563l-0.329-0.222c-0.205-0.141-0.406-0.283-0.595-0.412
					c-0.082-0.057-0.162-0.11-0.242-0.167l-0.077-0.059c-0.186-0.13-0.362-0.26-0.533-0.384l-0.088-0.064
					c-0.052-0.041-0.103-0.077-0.153-0.115c-0.223-0.163-0.432-0.322-0.62-0.474c-0.023-0.013-0.048-0.033-0.068-0.054l-0.204-0.151
					v-0.045c-0.006-0.117-0.015-0.232-0.023-0.35c-0.019-0.293-0.043-0.602-0.043-0.907c-0.014-12.026,9.76-21.825,21.783-21.835
					h0.027c5.753,0,11.184,2.226,15.283,6.261c4.096,4.032,6.407,9.418,6.509,15.161l0.004,0.146l-0.134-0.058
					c-2.148-1.01-7.794-3.507-13.785-4.857c-0.895-0.201-1.846-0.386-2.83-0.542h-0.031l-0.021-0.026
					c-2.115-2.296-4.971-3.562-8.046-3.562c-6.052,0.013-10.964,4.934-10.959,10.975c0.001,1.642,0.394,3.269,1.173,4.829
					L52.273,29.776z M43.435,24.271l0.134,0.11c0.019,0.013,0.04,0.03,0.064,0.048c0.191,0.145,0.399,0.303,0.623,0.47
					c0.047,0.038,0.098,0.076,0.152,0.114l0.088,0.066c0.169,0.12,0.347,0.254,0.532,0.381l0.076,0.055
					c0.079,0.054,0.16,0.112,0.242,0.174c0.188,0.127,0.389,0.263,0.588,0.405l0.329,0.219c0.283,0.187,0.569,0.375,0.875,0.569
					c0.017,0.005,0.036,0.014,0.055,0.03c0.021,0.013,0.045,0.028,0.07,0.038c0.303,0.194,0.627,0.391,1.064,0.646
					c0.115,0.067,0.238,0.135,0.358,0.204l0.02,0.01c0.251,0.147,0.514,0.293,0.779,0.429c0.152,0.086,0.298,0.164,0.451,0.242
					c0.265,0.14,0.538,0.275,0.811,0.41l0.143,0.066c0.101,0.052,0.2,0.097,0.303,0.146c0.214,0.097,0.442,0.197,0.701,0.315
					c-0.718-1.521-1.081-3.099-1.086-4.693c-0.009-6.142,4.989-11.148,11.134-11.159c3.121,0,6.02,1.284,8.168,3.602
					c0.976,0.156,1.917,0.334,2.806,0.534c5.89,1.33,11.445,3.76,13.691,4.808C86.319,10.866,76.659,1.41,64.999,1.41h-0.027
					c-11.924,0.01-21.618,9.725-21.604,21.653c0,0.296,0.023,0.604,0.043,0.896C43.418,24.06,43.427,24.164,43.435,24.271z"/>
			</g>
			<g>
				<path fill="#F7AD1A" d="M61.966,35.77c-4.347,0.006-8.074-2.524-9.884-6.169c-0.314-0.137-0.625-0.271-0.928-0.42
					c-0.149-0.063-0.298-0.137-0.445-0.206c-0.277-0.138-0.548-0.271-0.817-0.414c-0.15-0.08-0.299-0.158-0.449-0.236
					c-0.266-0.146-0.529-0.293-0.783-0.437c-0.125-0.072-0.26-0.144-0.378-0.213c-0.367-0.216-0.722-0.426-1.062-0.646
					c-0.046-0.019-0.088-0.051-0.13-0.079c-0.302-0.191-0.598-0.379-0.877-0.563c-0.112-0.074-0.219-0.143-0.329-0.221
					c-0.203-0.139-0.403-0.273-0.593-0.41c-0.104-0.075-0.215-0.149-0.318-0.22c-0.181-0.132-0.365-0.266-0.531-0.39
					c-0.08-0.059-0.166-0.114-0.237-0.18c-0.225-0.159-0.436-0.324-0.624-0.469c-0.038-0.028-0.071-0.053-0.109-0.079
					c-0.045-0.038-0.083-0.066-0.125-0.104c0.347,5.982,3.099,11.293,7.314,15.009c2.59-0.318,7.933-1.225,12.545-3.678
					C62.795,35.688,62.391,35.766,61.966,35.77z"/>
				<path fill="#FFFFFF" d="M50.636,39.418l-0.031-0.028c-4.399-3.875-7.009-9.225-7.35-15.07l-0.015-0.204l0.329,0.266
					c0.019,0.013,0.04,0.03,0.064,0.048c0.191,0.145,0.399,0.303,0.623,0.47c0.047,0.038,0.098,0.076,0.152,0.114l0.088,0.066
					c0.169,0.12,0.347,0.254,0.532,0.381l0.076,0.055c0.079,0.054,0.16,0.112,0.242,0.174c0.188,0.127,0.389,0.263,0.588,0.405
					l0.329,0.219c0.283,0.187,0.569,0.375,0.875,0.569c0.017,0.005,0.036,0.014,0.055,0.03c0.021,0.013,0.045,0.028,0.07,0.038
					c0.303,0.194,0.627,0.391,1.064,0.646c0.115,0.061,0.238,0.135,0.358,0.204l0.02,0.01c0.251,0.147,0.514,0.293,0.779,0.429
					c0.152,0.086,0.298,0.164,0.451,0.242c0.265,0.14,0.538,0.275,0.811,0.41l0.143,0.066c0.101,0.052,0.2,0.097,0.303,0.146
					c0.274,0.13,0.569,0.264,0.925,0.411l0.03,0.017l0.015,0.023c1.873,3.778,5.625,6.126,9.789,6.126
					c0.31,0,0.605-0.047,0.887-0.081c0.121-0.019,0.24-0.033,0.362-0.046l0.469-0.055l-0.418,0.22
					c-4.579,2.446-9.845,3.366-12.576,3.7H50.636z M43.449,24.516c0.385,5.699,2.952,10.917,7.246,14.711
					c2.64-0.323,7.596-1.19,12.019-3.43c-0.246,0.031-0.492,0.059-0.747,0.059c-4.24,0-8.044-2.365-9.952-6.188
					c-0.345-0.15-0.631-0.272-0.899-0.4c-0.104-0.046-0.206-0.097-0.308-0.144l-0.14-0.07c-0.275-0.137-0.548-0.269-0.816-0.417
					c-0.156-0.076-0.302-0.156-0.452-0.234c-0.269-0.143-0.531-0.291-0.784-0.435l-0.022-0.011c-0.118-0.069-0.241-0.136-0.36-0.206
					c-0.435-0.253-0.761-0.45-1.063-0.64c-0.025-0.015-0.05-0.031-0.076-0.046l-0.052-0.036c-0.302-0.191-0.595-0.38-0.878-0.563
					l-0.329-0.222c-0.205-0.141-0.406-0.283-0.595-0.412c-0.082-0.057-0.162-0.11-0.242-0.167l-0.077-0.059
					c-0.186-0.13-0.362-0.26-0.533-0.384l-0.088-0.064c-0.052-0.041-0.103-0.077-0.153-0.115c-0.223-0.163-0.432-0.322-0.62-0.474
					c-0.023-0.013-0.048-0.033-0.068-0.054H43.449z"/>
			</g>
		</g>
		<g>
			<path fill="#FFFFFF" d="M68.412,35.212c-0.004,0-0.004,0-0.004,0c-2.989,0-5.804-1.158-7.923-3.272
				c-2.231-2.228-3.388-5.21-3.254-8.408c0.032-0.772,0.149-1.548,0.358-2.373c0.22-0.848,0.554-1.681,0.986-2.479
				c0.579-1.082,1.179-1.914,1.882-2.615c0.021-0.022,0.046-0.045,0.069-0.055c0.018-0.016,0.031-0.026,0.046-0.038
				c2.094-2.046,4.859-3.175,7.785-3.175c2.523,0,5.006,0.864,6.992,2.436c0.093,0.082,0.191,0.15,0.286,0.223
				c0.236,0.181,0.482,0.36,0.699,0.581c3.026,3.016,4.051,7.432,2.674,11.527c-0.57,1.697-1.462,3.158-2.649,4.347
				C74.24,34.041,71.412,35.212,68.412,35.212z M68.356,12.978c-2.882,0-5.603,1.108-7.662,3.125
				c-0.02,0.021-0.04,0.037-0.062,0.054c-0.017,0.011-0.03,0.021-0.048,0.031c-0.688,0.696-1.277,1.514-1.852,2.578
				c-0.423,0.792-0.749,1.605-0.968,2.443c-0.21,0.805-0.326,1.571-0.358,2.328c-0.127,3.151,1.012,6.084,3.206,8.271
				c2.086,2.08,4.853,3.223,7.795,3.223c2.956,0,5.736-1.152,7.827-3.247c1.163-1.175,2.038-2.612,2.603-4.281
				c1.354-4.025,0.345-8.37-2.632-11.335c-0.21-0.216-0.446-0.395-0.678-0.57c-0.097-0.073-0.196-0.143-0.291-0.226
				C73.282,13.828,70.841,12.978,68.356,12.978z"/>
			<g>
				<path fill="#1B87C9" d="M60.633,16.042c4.042-3.962,10.317-4.183,14.66-0.739c5.037,1.53,9.496,4.693,11.56,6.308
					c-0.326-5.137-2.436-10.179-6.366-14.092c-0.342-0.34-0.705-0.647-1.063-0.959C75.161,7.116,64.751,9.136,60.633,16.042z"/>
				<path fill="#FFFFFF" d="M86.954,21.8l-0.157-0.117c-2.169-1.703-6.563-4.776-11.533-6.293l-0.028-0.019
					c-1.954-1.543-4.395-2.394-6.88-2.394c-2.882,0-5.603,1.108-7.662,3.125l-0.5,0.492l0.359-0.602
					c4.132-6.921,14.564-8.964,18.859-9.526h0.04l0.273,0.236c0.274,0.239,0.561,0.49,0.827,0.748
					c3.781,3.771,6.05,8.796,6.389,14.152L86.954,21.8z M75.337,15.225c4.872,1.487,9.182,4.464,11.41,6.186
					c-0.381-5.234-2.624-10.135-6.327-13.832c-0.257-0.259-0.542-0.501-0.815-0.741l-0.209-0.185
					c-4.168,0.549-14.016,2.482-18.317,8.848c2.023-1.752,4.582-2.707,7.277-2.707C70.877,12.796,73.355,13.653,75.337,15.225z"/>
			</g>
			<g>
				<path fill="#3BA4DC" d="M59.692,15.28c-0.512,1.08-0.853,2.231-1.039,3.444c0.5-0.927,1.086-1.812,1.865-2.595
					c0.039-0.032,0.077-0.06,0.115-0.087c4.119-6.906,14.528-8.926,18.79-9.482c-1.593-1.396-3.34-2.519-5.183-3.373
					C70.72,4.734,62.747,8.823,59.692,15.28z"/>
				<path fill="#FFFFFF" d="M58.485,19.23l0.078-0.52c0.187-1.226,0.54-2.392,1.049-3.469C62.69,8.719,70.841,4.576,74.203,3.101
					l0.037-0.017l0.035,0.017c1.883,0.871,3.633,2.017,5.207,3.394l0.157,0.129l-0.203,0.027
					c-4.268,0.557-14.633,2.583-18.728,9.434l-0.017,0.018c-0.017,0.021-0.037,0.037-0.059,0.054
					c-0.017,0.011-0.03,0.021-0.048,0.031c-0.688,0.696-1.277,1.514-1.852,2.578L58.485,19.23z M74.24,3.284
					C70.872,4.771,62.816,8.878,59.773,15.32c-0.426,0.905-0.74,1.88-0.94,2.896c0.501-0.861,1.026-1.552,1.624-2.152
					c0.021-0.022,0.046-0.045,0.069-0.055c0.009-0.009,0.021-0.016,0.034-0.033c4.076-6.802,14.246-8.883,18.651-9.478
					C77.699,5.198,76.027,4.123,74.24,3.284z"/>
			</g>
			<g>
				<path fill="#43B3E6" d="M57.675,21.186c0.223-0.854,0.553-1.676,0.978-2.462c0.186-1.212,0.527-2.364,1.039-3.444
					C62.747,8.823,70.72,4.734,74.24,3.188c-2.476-1.151-5.114-1.808-7.781-1.982c-1.802,1.821-4.933,5.331-7.009,9.53
					C57.852,13.967,56.918,17.597,57.675,21.186z"/>
				<path fill="#FFFFFF" d="M57.669,21.581l-0.08-0.379c-0.682-3.211-0.081-6.743,1.778-10.502c2.103-4.26,5.307-7.813,7.028-9.559
					l0.026-0.028l0.041,0.005c2.713,0.167,5.342,0.843,7.812,1.983l0.186,0.087l-0.188,0.08c-3.34,1.472-11.442,5.587-14.5,12.053
					c-0.501,1.055-0.845,2.206-1.027,3.42l-0.014,0.025c-0.423,0.792-0.749,1.605-0.968,2.443L57.669,21.581z M66.493,1.297
					c-1.723,1.746-4.885,5.272-6.962,9.476c-1.771,3.583-2.386,6.954-1.838,10.019c0.211-0.719,0.505-1.42,0.873-2.098
					c0.186-1.219,0.538-2.381,1.045-3.452C62.637,8.834,70.554,4.729,74.017,3.188C71.631,2.109,69.103,1.47,66.493,1.297z"/>
			</g>
			<g>
				<path fill="#55C2F0" d="M57.318,23.536c0.032-0.799,0.158-1.575,0.357-2.351c-0.757-3.588,0.176-7.218,1.774-10.451
					c2.076-4.199,5.207-7.708,7.009-9.53c-6.074-0.397-12.276,1.718-16.91,6.363c-0.089,0.086-0.159,0.184-0.244,0.271
					c0.874,2.417,3.104,8.112,6.376,13.292C56.199,21.953,56.752,22.754,57.318,23.536z"/>
				<path fill="#FFFFFF" d="M57.4,23.794l-0.154-0.209c-0.601-0.823-1.151-1.624-1.642-2.399
					c-3.318-5.256-5.569-11.066-6.385-13.315l-0.018-0.051l0.036-0.045c0.045-0.038,0.083-0.082,0.119-0.123
					c0.037-0.049,0.084-0.099,0.126-0.146c4.143-4.148,9.661-6.436,15.549-6.436c0.473,0,0.958,0.017,1.432,0.048l0.198,0.012
					l-0.135,0.138c-1.716,1.739-4.903,5.277-6.994,9.506c-1.842,3.729-2.437,7.227-1.764,10.392l0.004,0.021l-0.006,0.022
					c-0.21,0.805-0.326,1.571-0.358,2.328L57.4,23.794z M49.407,7.861c0.83,2.288,3.066,8.03,6.351,13.223
					c0.449,0.706,0.943,1.448,1.482,2.188c0.047-0.683,0.159-1.366,0.345-2.086c-0.673-3.205-0.076-6.731,1.781-10.486
					c2.048-4.147,5.133-7.632,6.885-9.419c-0.408-0.017-0.814-0.034-1.221-0.034c-5.84,0-11.315,2.27-15.422,6.388
					c-0.04,0.045-0.079,0.092-0.118,0.135C49.465,7.802,49.439,7.829,49.407,7.861z"/>
			</g>
			<g>
				<path fill="#85D3F6" d="M81.386,37.521c-0.003-0.059-0.012-0.109-0.021-0.167c-0.005-0.048-0.006-0.087-0.015-0.143
					c-0.031-0.233-0.066-0.496-0.107-0.771c-0.017-0.097-0.033-0.198-0.048-0.298c-0.028-0.209-0.065-0.426-0.102-0.653
					c-0.023-0.124-0.046-0.255-0.066-0.382c-0.039-0.229-0.086-0.471-0.132-0.714c-0.025-0.136-0.05-0.26-0.077-0.396
					c-0.069-0.329-0.14-0.669-0.22-1.025c-0.016-0.05-0.023-0.098-0.037-0.146c-0.088-0.397-0.191-0.798-0.301-1.208
					c-0.036-0.143-0.077-0.288-0.117-0.429c-0.078-0.285-0.161-0.572-0.248-0.864c-0.052-0.163-0.102-0.323-0.152-0.492
					c-0.093-0.293-0.191-0.584-0.291-0.87c-0.051-0.157-0.105-0.313-0.165-0.468c-0.117-0.327-0.241-0.639-0.366-0.962
					c-0.529,1.576-1.377,3.056-2.626,4.316c-4.343,4.356-11.388,4.362-15.75,0.025c-2.295-2.289-3.354-5.338-3.228-8.337
					c-0.566-0.782-1.119-1.583-1.637-2.405c-3.272-5.18-5.503-10.875-6.376-13.292c-8.272,8.583-8.179,22.229,0.293,30.669
					c8.561,8.533,22.413,8.511,30.941-0.052C80.843,38.155,81.107,37.834,81.386,37.521z"/>
				<path fill="#FFFFFF" d="M65.047,44.983h-0.001c-5.855,0-11.363-2.274-15.51-6.408c-4.111-4.096-6.4-9.55-6.453-15.346
					c-0.052-5.798,2.137-11.281,6.153-15.456l0.104-0.103l0.05,0.134c0.812,2.25,3.058,8.042,6.369,13.278
					c0.489,0.772,1.038,1.582,1.631,2.393l0.021,0.026l-0.004,0.033c-0.127,3.151,1.012,6.084,3.206,8.271
					c2.086,2.08,4.853,3.223,7.795,3.223l0,0c2.958,0,5.736-1.152,7.827-3.247c1.163-1.175,2.038-2.612,2.603-4.281l0.078-0.238
					l0.092,0.234c0.126,0.323,0.252,0.643,0.365,0.962c0.042,0.11,0.084,0.227,0.125,0.344l0.042,0.129
					c0.101,0.289,0.203,0.581,0.291,0.872c0.05,0.167,0.101,0.33,0.152,0.492c0.085,0.29,0.172,0.577,0.247,0.866l0.031,0.104
					c0.03,0.108,0.061,0.213,0.084,0.32c0.123,0.448,0.222,0.847,0.306,1.216c0.004,0.024,0.013,0.059,0.02,0.086l0.016,0.06
					c0.082,0.357,0.151,0.704,0.224,1.032c0.021,0.11,0.037,0.216,0.055,0.325l0.017,0.07c0.046,0.24,0.097,0.484,0.135,0.712
					c0.021,0.13,0.048,0.265,0.068,0.385c0.037,0.226,0.072,0.448,0.101,0.657l0.048,0.298c0.042,0.273,0.075,0.533,0.107,0.773
					c0.003,0.03,0.008,0.059,0.01,0.087l0.014,0.097c0,0.043,0.006,0.079,0.014,0.125l0.001,0.038l-0.024,0.03
					c-0.079,0.082-0.153,0.174-0.229,0.26c-0.199,0.23-0.404,0.467-0.622,0.682C76.453,42.687,70.927,44.983,65.047,44.983z
					 M49.267,8.007c-8.1,8.517-7.937,22.138,0.396,30.438c4.111,4.101,9.576,6.352,15.382,6.352h0.001
					c5.832,0,11.309-2.269,15.426-6.401c0.217-0.223,0.421-0.455,0.617-0.676c0.064-0.074,0.132-0.157,0.198-0.233
					c0-0.024-0.004-0.055-0.006-0.08l-0.013-0.101c0-0.022-0.003-0.045-0.009-0.073c-0.033-0.244-0.066-0.507-0.105-0.782
					l-0.047-0.296c-0.029-0.204-0.065-0.422-0.104-0.65c-0.023-0.125-0.043-0.26-0.067-0.388c-0.038-0.223-0.083-0.467-0.131-0.706
					l-0.017-0.079c-0.015-0.102-0.034-0.209-0.06-0.311c-0.07-0.337-0.142-0.678-0.223-1.03l-0.012-0.063
					c-0.007-0.025-0.011-0.054-0.021-0.079c-0.084-0.367-0.183-0.764-0.302-1.217c-0.025-0.102-0.055-0.205-0.087-0.314
					l-0.028-0.101c-0.078-0.288-0.161-0.581-0.25-0.867c-0.047-0.167-0.097-0.321-0.15-0.49c-0.089-0.287-0.187-0.578-0.287-0.864
					l-0.045-0.129c-0.037-0.113-0.079-0.229-0.122-0.347c-0.087-0.242-0.181-0.482-0.275-0.726
					c-0.574,1.603-1.434,2.981-2.567,4.116c-2.119,2.126-4.946,3.303-7.951,3.303l0,0c-2.989,0-5.804-1.158-7.923-3.272
					c-2.223-2.221-3.38-5.193-3.259-8.376c-0.588-0.81-1.135-1.61-1.622-2.378C52.352,16.036,50.123,10.352,49.267,8.007z"/>
			</g>
			<g>
				<path fill="#0376BD" d="M76.269,16.097c3.1,3.09,3.956,7.546,2.653,11.434c0.125,0.323,0.249,0.635,0.366,0.962
					c0.059,0.155,0.114,0.311,0.165,0.468c0.1,0.286,0.198,0.577,0.291,0.87c0.05,0.169,0.1,0.329,0.152,0.492
					c0.087,0.292,0.169,0.579,0.248,0.864c0.041,0.141,0.082,0.286,0.117,0.429c0.109,0.41,0.213,0.811,0.301,1.208
					c0.014,0.049,0.021,0.097,0.037,0.146c0.08,0.356,0.151,0.696,0.22,1.025c0.027,0.137,0.051,0.261,0.077,0.396
					c0.046,0.243,0.093,0.485,0.132,0.714c0.021,0.127,0.043,0.258,0.066,0.382c0.037,0.228,0.074,0.444,0.102,0.653
					c0.015,0.1,0.032,0.201,0.048,0.298c0.041,0.275,0.077,0.538,0.107,0.771c0.009,0.056,0.01,0.095,0.015,0.143
					c0.009,0.058,0.018,0.108,0.021,0.167c4.008-4.513,5.828-10.259,5.466-15.909c-2.063-1.615-6.523-4.778-11.56-6.308
					C75.623,15.564,75.966,15.798,76.269,16.097z"/>
				<path fill="#FFFFFF" d="M81.313,37.732l-0.017-0.207c-0.009-0.043-0.009-0.076-0.015-0.119l-0.013-0.101
					c0-0.022-0.003-0.045-0.009-0.073c-0.033-0.244-0.066-0.507-0.105-0.782l-0.047-0.296c-0.029-0.204-0.065-0.422-0.104-0.65
					c-0.023-0.125-0.043-0.26-0.067-0.388c-0.038-0.223-0.083-0.467-0.131-0.706l-0.017-0.079c-0.015-0.102-0.034-0.209-0.06-0.311
					c-0.07-0.337-0.142-0.678-0.223-1.03l-0.012-0.063c-0.007-0.025-0.011-0.054-0.021-0.079c-0.084-0.367-0.183-0.764-0.302-1.217
					c-0.025-0.102-0.055-0.205-0.087-0.314l-0.028-0.101c-0.078-0.288-0.161-0.581-0.25-0.867c-0.047-0.167-0.097-0.321-0.15-0.49
					c-0.089-0.287-0.187-0.578-0.287-0.864l-0.045-0.129c-0.037-0.113-0.079-0.229-0.122-0.347
					c-0.111-0.313-0.237-0.627-0.362-0.946l-0.01-0.028l0.009-0.042c1.354-4.025,0.345-8.37-2.632-11.335
					c-0.21-0.216-0.446-0.395-0.678-0.57c-0.097-0.073-0.196-0.143-0.291-0.226l-0.372-0.291l0.454,0.136
					c5,1.52,9.408,4.613,11.591,6.326l0.032,0.021v0.038c0.379,5.896-1.568,11.568-5.486,15.977L81.313,37.732z M79.02,27.531
					c0.123,0.316,0.24,0.618,0.352,0.929c0.042,0.11,0.084,0.229,0.125,0.344l0.042,0.129c0.101,0.289,0.203,0.581,0.291,0.872
					c0.05,0.167,0.101,0.33,0.152,0.492c0.085,0.29,0.172,0.577,0.247,0.866l0.031,0.104c0.03,0.108,0.061,0.213,0.084,0.32
					c0.123,0.448,0.222,0.847,0.306,1.216c0.004,0.024,0.013,0.059,0.02,0.086l0.016,0.06c0.082,0.357,0.151,0.704,0.224,1.032
					c0.021,0.11,0.037,0.216,0.055,0.325l0.017,0.07c0.046,0.24,0.097,0.484,0.135,0.712c0.021,0.13,0.048,0.265,0.068,0.385
					c0.037,0.226,0.072,0.448,0.101,0.657l0.048,0.298c0.042,0.273,0.075,0.533,0.107,0.773c0.003,0.03,0.008,0.059,0.01,0.087
					l0.002,0.017c3.789-4.341,5.675-9.885,5.313-15.646c-2.111-1.652-6.263-4.558-11.006-6.116c0.191,0.151,0.393,0.308,0.574,0.492
					C79.353,19.041,80.378,23.444,79.02,27.531z"/>
			</g>
		</g>
	</g>
</g>
</svg>
